<svg width="290" height="267" viewBox="0 0 290 267" fill="none" xmlns="http://www.w3.org/2000/svg">
<g clip-path="url(#clip0_8_1356)">
<path d="M195.48 189.28H91.4495C82.7051 189.28 75.5912 182.255 75.5912 173.621V70.9004C75.5912 62.2661 82.7051 55.2418 91.4495 55.2418H195.48C204.225 55.2418 211.339 62.2661 211.339 70.9004V173.621C211.339 182.255 204.225 189.28 195.48 189.28ZM91.4495 57.7471C84.0925 57.7471 78.1285 63.636 78.1285 70.9004V173.621C78.1285 180.885 84.0925 186.774 91.4495 186.774H164.321C188.887 186.774 208.801 167.11 208.801 142.854V70.9004C208.801 63.636 202.837 57.7471 195.48 57.7471L91.4495 57.7471Z" fill="white"/>
<path d="M102.665 68.429C97.7413 68.429 93.7359 72.384 93.7359 77.2457V91.0457C93.7359 95.9074 97.7413 99.8624 102.665 99.8624H116.641C121.565 99.8624 125.57 95.9074 125.57 91.0457V77.2457C125.57 72.384 121.565 68.429 116.641 68.429H102.665Z" fill="#F2F2F2"/>
<path d="M102.665 107.278C97.7413 107.278 93.7359 111.233 93.7359 116.095V129.895C93.7359 134.756 97.7413 138.711 102.665 138.711H116.641C121.565 138.711 125.57 134.756 125.57 129.895V116.095C125.57 111.233 121.565 107.278 116.641 107.278H102.665Z" fill="white"/>
<path d="M102.665 146.127C97.7413 146.127 93.7359 150.082 93.7359 154.943V168.743C93.7359 173.605 97.7413 177.56 102.665 177.56H116.641C121.565 177.56 125.57 173.605 125.57 168.743V154.943C125.57 150.082 121.565 146.127 116.641 146.127H102.665Z" fill="white"/>
<path d="M111.933 34.7599C105.729 34.7599 100.682 39.7434 100.682 45.8692V63.2577C100.682 69.3835 105.729 74.367 111.933 74.367H129.543C135.747 74.367 140.794 69.3835 140.794 63.2577V45.8692C140.794 39.7434 135.747 34.7599 129.543 34.7599H111.933Z" fill="#BAC3D7"/>
<path d="M169.91 83.3534C163.706 83.3534 158.659 88.3368 158.659 94.4627V111.851C158.659 117.977 163.706 122.96 169.91 122.96H187.521C193.725 122.96 198.772 117.977 198.772 111.851V94.4627C198.772 88.3368 193.725 83.3534 187.521 83.3534H169.91Z" fill="#BAC3D7"/>
<path d="M144.705 258.375L141.127 258.345L139.544 244.402L144.824 244.446L144.705 258.375Z" fill="#FEB6B7"/>
<path d="M133.245 263.992C133.238 264.862 133.947 265.578 134.831 265.586L141.944 265.644L143.189 263.152L143.647 265.657L146.331 265.681L145.653 256.746L144.719 256.685L140.911 256.426L139.682 256.345L139.66 258.873L133.946 262.699C133.512 262.991 133.25 263.474 133.245 263.992Z" fill="#2F2E41"/>
<path d="M162.907 258.375L159.329 258.345L157.746 244.402L163.026 244.446L162.907 258.375Z" fill="#FEB6B7"/>
<path d="M151.448 263.992C151.44 264.862 152.15 265.578 153.033 265.586L160.146 265.644L161.392 263.152L161.849 265.657L164.533 265.681L163.855 256.746L162.921 256.685L159.113 256.426L157.884 256.345L157.862 258.873L152.149 262.699C151.714 262.991 151.452 263.474 151.448 263.992Z" fill="#2F2E41"/>
<path d="M130.666 145.646L145.168 146.098L158.906 149.113C158.906 149.113 157.532 150.771 162.111 155.293C162.111 155.293 168.217 165.843 163.943 176.093L162.111 217.09C162.111 217.09 167.452 245.99 163.372 255.188L157.978 255.521L148.852 217.423L144.404 176.394L142.267 216.789C142.267 216.789 150.443 244.514 145.28 255.521L139.439 255.188L129.445 216.789C129.445 216.789 125.171 172.475 125.781 164.035C126.392 155.594 130.666 145.646 130.666 145.646Z" fill="#2F2E41"/>
<path d="M179.365 80.8641C177.383 81.3709 176.192 83.3686 176.705 85.326C176.941 86.2229 177.495 86.9526 178.215 87.4347L178.215 87.4397L177.933 94.1656L183.146 96.5475L183.562 86.1974L183.526 86.1985C183.978 85.4035 184.134 84.4429 183.884 83.4906C183.371 81.5331 181.348 80.3572 179.365 80.8641Z" fill="#FEB6B7"/>
<path d="M150.232 104.869C149.137 103.797 148.501 102.344 148.478 100.764C148.446 98.6439 149.521 96.7199 151.355 95.6172C153.467 94.3472 156.108 94.4758 158.083 95.9442L174.452 108.113L177.369 90.5826L183.631 92.573L182.136 115.401C182.032 116.997 181.118 118.404 179.691 119.163C178.265 119.923 176.573 119.904 175.164 119.113L151.509 105.824C151.034 105.557 150.606 105.235 150.232 104.869Z" fill="#3F3D56"/>
<path d="M125.272 71.0581C126.319 72.7962 125.74 75.0428 123.98 76.076C123.173 76.5495 122.259 76.6823 121.404 76.5241L121.401 76.5278L116.805 81.4997L111.404 79.5674L118.489 71.9281L118.514 71.9541C118.76 71.0752 119.334 70.2845 120.19 69.7818C121.951 68.7486 124.226 69.32 125.272 71.0581Z" fill="#FEB6B7"/>
<path d="M127.257 108.149L100.983 101.141C99.4188 100.723 98.2034 99.5605 97.7319 98.0296C97.2604 96.4987 97.6144 94.8645 98.6786 93.6578L113.895 76.4082L119.761 79.348L109.332 93.825L129.633 96.5624C132.083 96.8928 134.05 98.6374 134.644 101.007C135.16 103.065 134.552 105.179 133.018 106.663C131.875 107.768 130.387 108.358 128.845 108.358C128.319 108.358 127.785 108.289 127.257 108.149Z" fill="#3F3D56"/>
<path d="M164.716 151.678L127.975 153.342C126.966 151.829 127.239 149.553 128.652 146.704C133.988 135.947 129.936 115.597 127.21 105C126.445 102.027 128.498 99.0717 131.589 98.7665L135.053 98.4244L138.256 88.7723H149.471L154.123 94.0208L162.02 98.7572C160.582 113.375 154.458 134.017 163.183 144.368C165.091 146.633 165.632 149.081 164.716 151.678Z" fill="#3F3D56"/>
<path d="M142.437 88.9952C148.47 88.9952 153.36 84.166 153.36 78.2089C153.36 72.2518 148.47 67.4226 142.437 67.4226C136.404 67.4226 131.513 72.2518 131.513 78.2089C131.513 84.166 136.404 88.9952 142.437 88.9952Z" fill="#FEB6B7"/>
<path d="M154.798 71.3046C156.318 65.8332 139.753 61.1413 136.534 65.5475C136.086 64.921 134.432 64.5406 133.673 64.7327C132.914 64.9249 132.276 65.4053 131.653 65.8703C130.797 66.5198 129.909 67.1924 129.384 68.1263C128.855 69.0563 128.773 70.3246 129.485 71.1316C130.05 71.7734 131.041 75.184 131.89 75.3531C132.481 75.4722 132.98 75.5683 133.408 75.6375C133.789 75.0879 134.762 74.3976 134.692 73.7327C135.268 74.1093 135.057 74.772 134.941 75.4492C134.555 77.7043 125.842 95.1612 130.832 90.0171C131.326 90.3053 131.937 90.5743 132.642 90.8203C133.837 89.0409 134.817 86.9425 135.464 84.748L135.468 84.7886C135.691 86.6956 137.102 88.2604 138.969 88.7946C146.46 90.9374 152.52 87.7932 154.604 82.123C153.841 80.5934 153.509 80.7595 153.577 80.714C154.529 80.0801 155.839 80.4947 156.248 81.5544C156.369 81.8669 156.478 82.1336 156.573 82.3344C157.659 78.4988 158.951 79.0524 154.798 71.3046Z" fill="#2F2E41"/>
<path d="M149.63 67.3349L148.865 63.4723C148.801 63.1476 148.74 62.7953 148.888 62.4987C149.078 62.1174 149.568 61.9595 149.994 62.0202C150.42 62.081 150.739 62.4653 151.163 62.5393C152.637 62.7966 154.585 61.359 155.113 64.9958C155.334 66.5121 157.784 66.6722 158.602 67.9736C159.421 69.2749 159.521 71.1533 158.404 72.2165C157.512 73.0656 156.08 73.1636 154.921 72.7298C153.763 72.2961 152.833 71.42 152.021 70.4961C151.209 69.5722 150.473 68.5724 149.537 67.7717" fill="#2F2E41"/>
<path d="M155.381 73.2099C152.392 72.7976 150.355 71.7242 149.326 70.0197C147.979 67.7885 148.881 65.3318 148.92 65.2283L149.552 65.4602C149.543 65.4828 148.725 67.7317 149.908 69.6846C150.829 71.2038 152.702 72.1682 155.475 72.5507L155.381 73.2099Z" fill="#6C63FF"/>
<path d="M169.409 31.474C160.621 31.474 153.471 24.4139 153.471 15.737C153.471 7.06013 160.621 0 169.409 0C178.196 0 185.346 7.06013 185.346 15.737C185.346 24.4139 178.196 31.474 169.409 31.474ZM169.409 6.2948C164.135 6.2948 159.846 10.5303 159.846 15.737C159.846 20.9437 164.135 25.1792 169.409 25.1792C174.682 25.1792 178.971 20.9437 178.971 15.737C178.971 10.5303 174.682 6.2948 169.409 6.2948Z" fill="#BAC3D7"/>
<path d="M193.93 42.1687C193.149 42.1687 192.366 41.8875 191.751 41.3173L176.792 27.4752C175.507 26.2872 175.441 24.2955 176.646 23.0277C177.848 21.7552 179.865 21.6922 181.15 22.8832L196.109 36.7253C197.395 37.9132 197.46 39.905 196.255 41.1728C195.628 41.8352 194.78 42.1687 193.93 42.1687Z" fill="#BAC3D7"/>
<path d="M261.536 258.022C262.62 258.089 263.219 256.759 262.399 255.984L262.317 255.664C262.328 255.639 262.339 255.613 262.35 255.587C263.446 253.007 267.16 253.025 268.247 255.609C269.211 257.903 270.439 260.2 270.742 262.626C270.877 263.696 270.816 264.787 270.576 265.837C272.836 260.963 274.025 255.64 274.025 250.287C274.025 248.942 273.951 247.597 273.798 246.256C273.673 245.158 273.5 244.067 273.276 242.987C272.067 237.145 269.447 231.582 265.67 226.935C263.853 225.954 262.339 224.422 261.424 222.585C261.095 221.923 260.838 221.21 260.716 220.484C260.923 220.511 261.495 217.403 261.339 217.212C261.627 216.781 262.143 216.566 262.457 216.145C264.022 214.051 266.177 214.416 267.303 217.263C269.707 218.461 269.73 220.447 268.255 222.358C267.316 223.574 267.188 225.218 266.364 226.52C266.449 226.627 266.537 226.731 266.622 226.838C268.175 228.805 269.519 230.919 270.651 233.141C270.331 230.672 270.804 227.698 271.609 225.78C272.526 223.596 274.245 221.756 275.759 219.868C277.577 217.599 281.306 218.589 281.626 221.465C281.629 221.493 281.632 221.52 281.635 221.548C281.41 221.674 281.19 221.807 280.975 221.947C279.748 222.749 280.172 224.627 281.626 224.849L281.659 224.854C281.578 225.653 281.439 226.446 281.235 227.226C283.177 234.641 278.985 237.342 272.998 237.463C272.866 237.53 272.738 237.597 272.605 237.661C273.212 239.347 273.696 241.077 274.056 242.83C274.377 244.379 274.601 245.944 274.726 247.517C274.882 249.501 274.869 251.495 274.699 253.475L274.71 253.405C275.14 251.224 276.339 249.186 278.081 247.774C280.675 245.67 284.341 244.895 287.14 243.204C288.487 242.389 290.213 243.442 289.978 244.984L289.967 245.058C289.55 245.225 289.144 245.419 288.751 245.637C288.526 245.762 288.305 245.895 288.09 246.035C286.863 246.837 287.287 248.715 288.741 248.937L288.774 248.942C288.798 248.945 288.818 248.949 288.842 248.952C288.127 250.628 287.131 252.184 285.884 253.525C284.67 259.999 279.455 260.613 273.876 258.728H273.873C273.263 261.351 272.372 263.914 271.226 266.356H261.773C261.739 266.252 261.709 266.145 261.678 266.041C262.552 266.095 263.433 266.045 264.294 265.887C263.593 265.038 262.891 264.181 262.19 263.331C262.173 263.315 262.159 263.298 262.146 263.281C261.79 262.846 261.431 262.415 261.075 261.98L261.075 261.979C261.053 260.644 261.215 259.313 261.536 258.022Z" fill="white"/>
<path d="M0 266.384C0 266.726 0.27805 267 0.624296 267H289.302C289.648 267 289.926 266.726 289.926 266.384C289.926 266.042 289.648 265.767 289.302 265.767H0.624296C0.27805 265.767 0 266.042 0 266.384Z" fill="#CCCCCC"/>
</g>
<defs>
<clipPath id="clip0_8_1356">
<rect width="290" height="267" fill="white"/>
</clipPath>
</defs>
</svg>
