<svg width="18" height="16" viewBox="0 0 18 16" fill="none" xmlns="http://www.w3.org/2000/svg">
<path d="M12.8073 10.0629H12.0404L11.7685 9.81589C12.7199 8.77301 13.2926 7.4191 13.2926 5.94625C13.2926 2.66209 10.4677 0 6.9827 0C3.49767 0 0.67276 2.66209 0.67276 5.94625C0.67276 9.23042 3.49767 11.8925 6.9827 11.8925C8.54562 11.8925 9.98235 11.3528 11.089 10.4563L11.3511 10.7124V11.4351L16.2049 16L17.6514 14.6369L12.8073 10.0629ZM6.9827 10.0629C4.56551 10.0629 2.61428 8.22413 2.61428 5.94625C2.61428 3.66838 4.56551 1.82962 6.9827 1.82962C9.39989 1.82962 11.3511 3.66838 11.3511 5.94625C11.3511 8.22413 9.39989 10.0629 6.9827 10.0629Z" fill="#B1B1B1"/>
</svg>
