<svg width="324" height="313" viewBox="0 0 324 313" fill="none" xmlns="http://www.w3.org/2000/svg">
<path d="M249.512 69.956H75.552C73.7909 69.9537 72.1026 69.1789 70.8573 67.8015C69.6121 66.4241 68.9116 64.5565 68.9095 62.6086V7.34735C68.9116 5.3994 69.6121 3.53189 70.8573 2.15448C72.1026 0.777075 73.7909 0.00225763 75.552 0H264.236C265.997 0.00225905 267.685 0.777076 268.93 2.15448C270.175 3.53189 270.876 5.3994 270.878 7.34735V46.3228C270.872 52.5886 268.619 58.5956 264.613 63.0262C260.608 67.4567 255.177 69.9489 249.512 69.956Z" fill="#F2F2F2"/>
<path d="M189.506 19.6536H110.068C109.613 19.6536 109.178 19.4539 108.856 19.0985C108.535 18.7432 108.355 18.2612 108.355 17.7587C108.355 17.2561 108.535 16.7741 108.856 16.4188C109.178 16.0634 109.613 15.8638 110.068 15.8638H189.506C189.96 15.8638 190.396 16.0634 190.717 16.4188C191.039 16.7741 191.219 17.2561 191.219 17.7587C191.219 18.2612 191.039 18.7432 190.717 19.0985C190.396 19.4539 189.96 19.6536 189.506 19.6536Z" fill="white"/>
<path d="M229.719 27.4038H110.068C109.613 27.4038 109.178 27.2042 108.856 26.8488C108.535 26.4934 108.355 26.0115 108.355 25.5089C108.355 25.0063 108.535 24.5244 108.856 24.169C109.178 23.8137 109.613 23.614 110.068 23.614H229.719C230.174 23.614 230.609 23.8137 230.931 24.169C231.252 24.5244 231.432 25.0063 231.432 25.5089C231.432 26.0115 231.252 26.4934 230.931 26.8488C230.609 27.2042 230.174 27.4038 229.719 27.4038Z" fill="white"/>
<path d="M229.719 36.2998H110.068C109.613 36.2998 109.178 36.1002 108.856 35.7448C108.535 35.3894 108.355 34.9075 108.355 34.4049C108.355 33.9023 108.535 33.4204 108.856 33.065C109.178 32.7097 109.613 32.51 110.068 32.51H229.719C230.174 32.51 230.609 32.7097 230.931 33.065C231.252 33.4204 231.432 33.9023 231.432 34.4049C231.432 34.9075 231.252 35.3894 230.931 35.7448C230.609 36.1002 230.174 36.2998 229.719 36.2998Z" fill="white"/>
<path d="M229.719 45.196H110.068C109.613 45.196 109.178 44.9964 108.856 44.641C108.535 44.2857 108.355 43.8037 108.355 43.3011C108.355 42.7986 108.535 42.3166 108.856 41.9612C109.178 41.6059 109.613 41.4063 110.068 41.4062H229.719C230.174 41.4062 230.609 41.6059 230.931 41.9612C231.252 42.3166 231.432 42.7986 231.432 43.3011C231.432 43.8037 231.252 44.2857 230.931 44.641C230.609 44.9964 230.174 45.196 229.719 45.196Z" fill="white"/>
<path d="M229.719 54.0923H110.068C109.842 54.0927 109.619 54.044 109.411 53.949C109.203 53.8539 109.014 53.7144 108.854 53.5384C108.695 53.3624 108.569 53.1534 108.482 52.9233C108.396 52.6932 108.352 52.4465 108.352 52.1974C108.352 51.9483 108.396 51.7016 108.482 51.4715C108.569 51.2414 108.695 51.0324 108.854 50.8564C109.014 50.6804 109.203 50.5408 109.411 50.4458C109.619 50.3508 109.842 50.3021 110.068 50.3025H229.719C230.173 50.3033 230.608 50.5034 230.929 50.8586C231.249 51.2139 231.429 51.6954 231.429 52.1974C231.429 52.6994 231.249 53.1809 230.929 53.5361C230.608 53.8914 230.173 54.0914 229.719 54.0923Z" fill="white"/>
<path d="M204.288 120.802H6.64244C4.88138 120.8 3.19303 120.025 1.94778 118.648C0.702521 117.27 0.00204103 115.403 0 113.455V48.278C0.00204103 46.3301 0.702521 44.4626 1.94778 43.0852C3.19303 41.7077 4.88138 40.9329 6.64244 40.9307H204.288C206.049 40.9329 207.737 41.7077 208.983 43.0852C210.228 44.4626 210.928 46.3301 210.93 48.278V113.455C210.928 115.403 210.228 117.27 208.983 118.648C207.737 120.025 206.049 120.8 204.288 120.802Z" fill="#2F2E41"/>
<path d="M185.084 115.847H11.1239C9.36289 115.844 7.67454 115.07 6.42928 113.692C5.18403 112.315 4.48355 110.447 4.48151 108.499V53.238C4.48355 51.29 5.18403 49.4225 6.42928 48.0451C7.67454 46.6677 9.36289 45.8929 11.1239 45.8906H199.808C201.569 45.8929 203.257 46.6677 204.502 48.0451C205.747 49.4225 206.448 51.29 206.45 53.238V92.2135C206.444 98.4792 204.191 104.486 200.185 108.917C196.18 113.347 190.749 115.84 185.084 115.847Z" fill="white"/>
<path d="M125.078 65.5442H45.6396C45.1853 65.5442 44.7495 65.3445 44.4283 64.9892C44.107 64.6338 43.9265 64.1519 43.9265 63.6493C43.9265 63.1467 44.107 62.6648 44.4283 62.3094C44.7495 61.954 45.1853 61.7544 45.6396 61.7544H125.078C125.532 61.7544 125.968 61.954 126.289 62.3094C126.611 62.6648 126.791 63.1467 126.791 63.6493C126.791 64.1519 126.611 64.6338 126.289 64.9892C125.968 65.3445 125.532 65.5442 125.078 65.5442Z" fill="#03C1A6"/>
<path d="M165.291 73.2944H45.6396C45.1853 73.2944 44.7495 73.0948 44.4283 72.7394C44.107 72.3841 43.9265 71.9021 43.9265 71.3995C43.9265 70.897 44.107 70.415 44.4283 70.0596C44.7495 69.7043 45.1853 69.5046 45.6396 69.5046H165.291C165.746 69.5046 166.181 69.7043 166.503 70.0596C166.824 70.415 167.004 70.897 167.004 71.3995C167.004 71.9021 166.824 72.3841 166.503 72.7394C166.181 73.0948 165.746 73.2944 165.291 73.2944Z" fill="#E6E6E6"/>
<path d="M165.291 82.1904H45.6396C45.1853 82.1904 44.7495 81.9908 44.4283 81.6354C44.107 81.28 43.9265 80.7981 43.9265 80.2955C43.9265 79.793 44.107 79.311 44.4283 78.9556C44.7495 78.6003 45.1853 78.4006 45.6396 78.4006H165.291C165.746 78.4006 166.181 78.6003 166.503 78.9556C166.824 79.311 167.004 79.793 167.004 80.2955C167.004 80.7981 166.824 81.28 166.503 81.6354C166.181 81.9908 165.746 82.1904 165.291 82.1904Z" fill="#E6E6E6"/>
<path d="M165.291 91.0867H45.6396C45.1853 91.0867 44.7495 90.887 44.4283 90.5317C44.107 90.1763 43.9265 89.6943 43.9265 89.1918C43.9265 88.6892 44.107 88.2072 44.4283 87.8519C44.7495 87.4965 45.1853 87.2969 45.6396 87.2969H165.291C165.746 87.2969 166.181 87.4965 166.503 87.8519C166.824 88.2072 167.004 88.6892 167.004 89.1918C167.004 89.6943 166.824 90.1763 166.503 90.5317C166.181 90.887 165.746 91.0867 165.291 91.0867Z" fill="#E6E6E6"/>
<path d="M165.291 99.9827H45.6396C45.4144 99.9831 45.1913 99.9344 44.9832 99.8393C44.775 99.7443 44.5858 99.6048 44.4264 99.4288C44.267 99.2528 44.1406 99.0438 44.0543 98.8136C43.9681 98.5835 43.9236 98.3369 43.9236 98.0878C43.9236 97.8386 43.9681 97.592 44.0543 97.3619C44.1406 97.1318 44.267 96.9227 44.4264 96.7467C44.5858 96.5707 44.775 96.4312 44.9832 96.3362C45.1913 96.2412 45.4144 96.1925 45.6396 96.1929H165.291C165.745 96.1937 166.18 96.3937 166.501 96.749C166.821 97.1043 167.001 97.5858 167.001 98.0878C167.001 98.5898 166.821 99.0713 166.501 99.4265C166.18 99.7818 165.745 99.9818 165.291 99.9827Z" fill="#E6E6E6"/>
<path d="M66 172C63.0333 172 60.1332 171.12 57.6664 169.472C55.1997 167.824 53.2771 165.481 52.1418 162.74C51.0065 159.999 50.7095 156.983 51.2882 154.074C51.867 151.164 53.2956 148.491 55.3934 146.393C57.4912 144.296 60.1639 142.867 63.0737 142.288C65.9834 141.709 68.9994 142.007 71.7403 143.142C74.4811 144.277 76.8238 146.2 78.472 148.666C80.1203 151.133 81 154.033 81 157C81 160.978 79.4196 164.794 76.6066 167.607C73.7936 170.42 69.9782 172 66 172Z" fill="#BAC3D7"/>
<path d="M71.3349 155.571H67.5559V151.391C67.5552 151.022 67.4222 150.668 67.186 150.407C66.9498 150.146 66.6298 150 66.2961 150C65.9624 150 65.6424 150.146 65.4062 150.407C65.1701 150.668 65.037 151.022 65.0364 151.391V155.571H61.2572C60.9236 155.572 60.6038 155.719 60.3681 155.98C60.1324 156.241 60 156.595 60 156.964C60 157.333 60.1324 157.687 60.3681 157.949C60.6038 158.21 60.9236 158.357 61.2572 158.358H65.0364V162.538C65.037 162.907 65.1701 163.261 65.4062 163.521C65.6424 163.782 65.9624 163.929 66.2961 163.929C66.6298 163.929 66.9498 163.782 67.186 163.521C67.4222 163.261 67.5552 162.907 67.5559 162.538V158.358H71.3349C71.5006 158.358 71.6647 158.322 71.8178 158.252C71.9709 158.183 72.1101 158.08 72.2273 157.951C72.3445 157.821 72.4375 157.667 72.501 157.498C72.5645 157.329 72.5971 157.148 72.5971 156.964C72.5971 156.781 72.5645 156.6 72.501 156.43C72.4375 156.261 72.3445 156.107 72.2273 155.978C72.1101 155.849 71.9709 155.746 71.8178 155.676C71.6647 155.606 71.5006 155.571 71.3349 155.571Z" fill="white"/>
<path d="M106 172C103.033 172 100.133 171.12 97.6664 169.472C95.1997 167.824 93.2771 165.481 92.1418 162.74C91.0065 159.999 90.7094 156.983 91.2882 154.074C91.867 151.164 93.2956 148.491 95.3934 146.393C97.4912 144.296 100.164 142.867 103.074 142.288C105.983 141.709 108.999 142.007 111.74 143.142C114.481 144.277 116.824 146.2 118.472 148.666C120.12 151.133 121 154.033 121 157C121 160.978 119.42 164.794 116.607 167.607C113.794 170.42 109.978 172 106 172Z" fill="#BAC3D7"/>
<path d="M111.335 156H101.257C100.924 156.001 100.604 156.148 100.368 156.409C100.132 156.67 100 157.024 100 157.393C100 157.762 100.132 158.116 100.368 158.378C100.604 158.639 100.924 158.786 101.257 158.787H111.335C111.501 158.787 111.665 158.751 111.818 158.682C111.971 158.612 112.11 158.509 112.227 158.38C112.345 158.25 112.438 158.096 112.501 157.927C112.564 157.758 112.597 157.577 112.597 157.393C112.597 157.21 112.564 157.029 112.501 156.86C112.438 156.69 112.345 156.537 112.227 156.407C112.11 156.278 111.971 156.175 111.818 156.105C111.665 156.035 111.501 156 111.335 156Z" fill="white"/>
<path d="M145 172C142.033 172 139.133 171.12 136.666 169.472C134.2 167.824 132.277 165.481 131.142 162.74C130.006 159.999 129.709 156.983 130.288 154.074C130.867 151.164 132.296 148.491 134.393 146.393C136.491 144.296 139.164 142.867 142.074 142.288C144.983 141.709 147.999 142.007 150.74 143.142C153.481 144.277 155.824 146.2 157.472 148.666C159.12 151.133 160 154.033 160 157C160 160.978 158.42 164.794 155.607 167.607C152.794 170.42 148.978 172 145 172Z" fill="#03C1A6"/>
<path d="M151.816 156.464L148.107 152.362C148.025 152.272 147.921 152.195 147.8 152.135C147.679 152.075 147.543 152.034 147.401 152.014C147.259 151.994 147.114 151.995 146.972 152.018C146.831 152.041 146.697 152.084 146.578 152.146C146.458 152.208 146.357 152.287 146.278 152.379C146.199 152.47 146.145 152.573 146.118 152.68C146.092 152.788 146.093 152.898 146.123 153.006C146.153 153.113 146.21 153.214 146.292 153.305L148.691 155.958H139.293C139.123 155.957 138.955 155.982 138.798 156.031C138.642 156.08 138.499 156.152 138.379 156.243C138.259 156.334 138.164 156.442 138.098 156.561C138.033 156.68 138 156.807 138 156.935C138 157.064 138.033 157.191 138.098 157.31C138.164 157.429 138.259 157.537 138.379 157.628C138.499 157.718 138.642 157.79 138.798 157.839C138.955 157.888 139.123 157.914 139.293 157.913H148.809L146.292 160.697C146.128 160.879 146.066 161.103 146.12 161.32C146.173 161.537 146.339 161.729 146.579 161.854C146.819 161.979 147.115 162.026 147.402 161.986C147.688 161.946 147.942 161.821 148.107 161.639L151.816 157.537C151.937 157.373 152 157.188 152 157.001C152 156.813 151.937 156.628 151.816 156.464Z" fill="white"/>
<path d="M224.75 305.207L218.851 305.206L216.045 280.037L224.751 280.038L224.75 305.207Z" fill="#FEB6B7"/>
<path d="M224.958 312.014L206.817 312.013V311.759C206.817 309.688 207.561 307.701 208.885 306.237C210.21 304.772 212.006 303.949 213.878 303.949L217.192 301.168L223.375 303.95L224.958 303.95L224.958 312.014Z" fill="#2F2E41"/>
<path d="M269.93 298.15L264.478 300.64L253.196 278.563L261.244 274.887L269.93 298.15Z" fill="#FEB6B7"/>
<path d="M272.472 304.353L255.705 312.014L255.618 311.779C254.903 309.865 254.905 307.715 255.623 305.802C256.341 303.889 257.717 302.37 259.448 301.579L261.551 297.609L268.225 297.569L269.689 296.9L272.472 304.353Z" fill="#2F2E41"/>
<path d="M253.424 170.613C253.424 170.613 248.854 154.67 250.748 148.143L261.285 147.436L262.491 170.962L256.468 198.163C256.703 198.939 256.748 199.77 256.599 200.572C256.449 201.374 256.111 202.117 255.617 202.728C255.124 203.338 254.493 203.793 253.79 204.046C253.086 204.3 252.334 204.343 251.61 204.171C250.887 203.999 250.217 203.619 249.669 203.068C249.122 202.518 248.715 201.817 248.492 201.036C248.268 200.256 248.236 199.424 248.397 198.625C248.558 197.826 248.907 197.088 249.409 196.487L253.424 170.613Z" fill="#FEB6B7"/>
<path d="M260.148 137.952L258.568 130.265C257.974 127.372 256.868 124.638 255.315 122.219C253.761 119.8 251.791 117.745 249.517 116.172C248.105 115.203 246.476 114.69 244.815 114.692C243.153 114.693 241.525 115.208 240.115 116.179C238.21 117.51 236.834 119.59 236.264 122.001C235.693 124.411 235.972 126.971 237.042 129.162C240.294 135.807 240.311 143.336 245.123 143.548L244.935 146.312L251.563 162.33L264.534 158.708L260.148 137.952Z" fill="#E6E6E6"/>
<path d="M251.467 172.697C251.467 172.697 254.841 185.112 252.18 195.711C249.519 206.309 247.374 231.874 247.374 231.874L267.238 286.133L257.997 288.769L228.47 235.413L225.685 291.373L216.777 291.777L210.052 235.736L215.386 179.373L251.467 172.697Z" fill="#2F2E41"/>
<path d="M252.959 183.531L253.013 183.448C255.894 178.985 251.56 168.263 250.907 166.708C251.683 166.43 252.348 165.862 252.788 165.102C253.228 164.342 253.417 163.437 253.322 162.541L253.04 159.891L252.746 157.293L254.85 154.965L254.856 154.907L256.067 143.187L257.828 135.403C258.491 132.461 258.435 129.376 257.664 126.465C256.893 123.555 255.436 120.923 253.443 118.842L249.373 118.127L244.427 112.856H236.451L233.717 115.746C228.612 116.736 229.687 116.413 225.302 122.233L219.787 139.683L220.285 142.173L220.283 145.549L221.066 155.51C220.611 156.07 220.28 156.74 220.1 157.466C219.92 158.191 219.896 158.954 220.029 159.692L220.195 160.611C218.892 161.229 217.648 172.209 217.351 173.743L216.907 176.034C216.527 176.588 214.021 180.285 214.021 181.295C214.021 181.447 214.122 181.594 214.339 181.756C216.048 183.036 226.366 184.351 230.544 182.501C234.995 180.533 252.689 183.486 252.867 183.516L252.959 183.531Z" fill="#E6E6E6"/>
<path d="M199.629 149.487C199.629 149.487 212.451 140.62 218.637 141.025L221.881 152.137L201.583 159.287L176.266 159.61C175.645 160.055 174.928 160.31 174.189 160.35C173.45 160.389 172.714 160.212 172.057 159.835C171.4 159.459 170.845 158.897 170.447 158.206C170.05 157.515 169.825 156.72 169.795 155.902C169.765 155.084 169.932 154.272 170.278 153.548C170.623 152.825 171.136 152.215 171.764 151.781C172.391 151.347 173.112 151.105 173.851 151.078C174.591 151.052 175.324 151.242 175.975 151.631L199.629 149.487Z" fill="#FEB6B7"/>
<path d="M229.901 148.556L236.238 144.949C238.623 143.592 240.742 141.726 242.473 139.46C244.204 137.193 245.512 134.571 246.323 131.743C246.82 129.989 246.863 128.117 246.449 126.337C246.034 124.557 245.177 122.941 243.975 121.672C242.336 119.964 240.172 119.007 237.919 118.996C235.667 118.986 233.495 119.921 231.842 121.614C226.835 126.753 220.247 128.646 221.26 133.854L218.792 134.341L206.419 145.431L212.82 158.424L229.901 148.556Z" fill="#E6E6E6"/>
<path d="M240.501 109.535C247.086 109.535 252.424 103.63 252.424 96.3461C252.424 89.0622 247.086 83.1575 240.501 83.1575C233.916 83.1575 228.578 89.0622 228.578 96.3461C228.578 103.63 233.916 109.535 240.501 109.535Z" fill="#FEB6B7"/>
<path d="M232.325 81.1187C233.18 81.0906 232.886 79.3089 233.575 78.7406C233.578 78.7578 233.582 78.775 233.585 78.7922C233.675 79.1771 233.875 79.5197 234.155 79.7696C234.434 80.0196 234.779 80.1636 235.138 80.1806C235.497 80.1975 235.852 80.0865 236.15 79.8638C236.447 79.6411 236.673 79.3185 236.792 78.9435C236.906 78.5098 237.113 78.1127 237.395 77.7857C237.677 77.4587 238.025 77.2114 238.411 77.0645C238.454 78.7158 239.584 80.1491 240.931 80.8624C242.278 81.5756 243.814 81.6943 245.308 81.7188C246.801 81.6521 248.297 81.7774 249.764 82.0921C251.212 82.4963 252.621 83.4468 253.24 84.9504C253.859 86.4541 253.417 88.5243 252.064 89.2242C253.112 89.2304 254.002 90.1871 254.364 91.2749C254.661 92.3908 254.739 93.564 254.591 94.7158C254.297 98.9805 253.579 103.572 250.771 106.513C248.631 108.755 245.569 109.658 242.622 109.645C239.675 109.632 240.193 109.332 237.343 108.5C240.274 108.863 239.474 94.3823 234.632 93.7957C234.584 93.6676 234.543 93.5368 234.507 93.4038C234.329 92.7263 234.007 92.1052 233.569 91.5918C233.132 91.0783 232.59 90.6871 231.989 90.4503C231.382 90.2323 230.729 90.2251 230.118 90.4296C229.507 90.6341 228.967 91.0406 228.571 91.5943C225.451 88.3575 227.387 81.2809 232.325 81.1187Z" fill="#2F2E41"/>
<path d="M307.164 312.447H290.966L290.896 312.307C290.689 311.891 290.489 311.451 290.302 310.999C288.634 307.048 287.929 302.529 287.306 298.542L286.838 295.537C286.781 295.173 286.824 294.798 286.96 294.461C287.097 294.124 287.322 293.84 287.605 293.645C287.889 293.45 288.219 293.353 288.552 293.367C288.886 293.381 289.208 293.504 289.478 293.721C291.94 295.703 294.403 297.682 296.866 299.66C297.799 300.41 298.864 301.279 299.885 302.218C299.983 301.689 300.086 301.159 300.189 300.636C300.26 300.275 300.427 299.945 300.668 299.69C300.909 299.434 301.214 299.264 301.543 299.201C301.872 299.138 302.211 299.185 302.516 299.336C302.821 299.488 303.078 299.736 303.255 300.05L305.15 303.418C306.532 305.877 307.752 308.301 307.503 310.915C307.505 310.947 307.502 310.979 307.497 311.01C307.447 311.439 307.355 311.861 307.222 312.268L307.164 312.447Z" fill="#03C1A6"/>
</svg>
